<mxfile host="65bd71144e">
    <diagram id="8NllpDCs_Z5x2nCd5wgV" name="第 1 页">
        <mxGraphModel dx="1394" dy="738" grid="1" gridSize="10" guides="1" tooltips="1" connect="1" arrows="1" fold="1" page="1" pageScale="1" pageWidth="1169" pageHeight="1654" math="0" shadow="0">
            <root>
                <mxCell id="0"/>
                <mxCell id="1" parent="0"/>
                <mxCell id="2" value="VehicleService" style="rounded=1;whiteSpace=wrap;html=1;strokeWidth=2;arcSize=6;fillColor=#EDFDFF;fontStyle=1;labelBackgroundColor=none;" vertex="1" parent="1">
                    <mxGeometry x="400" y="200" width="440" height="80" as="geometry"/>
                </mxCell>
                <mxCell id="3" value="VehicleHal" style="rounded=1;whiteSpace=wrap;html=1;strokeWidth=2;arcSize=6;fillColor=#FBFFE8;fontStyle=1;labelBackgroundColor=none;" vertex="1" parent="1">
                    <mxGeometry x="480" y="340" width="360" height="80" as="geometry"/>
                </mxCell>
                <mxCell id="5" value="VehicleHardware" style="rounded=1;whiteSpace=wrap;html=1;strokeWidth=2;arcSize=6;fillColor=#F0FFE8;fontStyle=1;labelBackgroundColor=none;" vertex="1" parent="1">
                    <mxGeometry x="560" y="480" width="280" height="80" as="geometry"/>
                </mxCell>
                <mxCell id="6" value="" style="curved=1;endArrow=classic;html=1;entryX=0;entryY=0.5;entryDx=0;entryDy=0;strokeWidth=2;strokeColor=#990000;labelBackgroundColor=none;" edge="1" parent="1" target="5">
                    <mxGeometry width="50" height="50" relative="1" as="geometry">
                        <mxPoint x="411" y="280" as="sourcePoint"/>
                        <mxPoint x="520" y="600" as="targetPoint"/>
                        <Array as="points">
                            <mxPoint x="400" y="450"/>
                            <mxPoint x="450" y="530"/>
                        </Array>
                    </mxGeometry>
                </mxCell>
                <mxCell id="8" value="1. 创建VehicleHardware" style="edgeLabel;html=1;align=center;verticalAlign=middle;resizable=0;points=[];labelBackgroundColor=none;" vertex="1" connectable="0" parent="6">
                    <mxGeometry x="-0.0343" y="7" relative="1" as="geometry">
                        <mxPoint as="offset"/>
                    </mxGeometry>
                </mxCell>
                <mxCell id="7" value="VehiclePropertyStore" style="rounded=1;whiteSpace=wrap;html=1;strokeWidth=2;arcSize=6;fillColor=#FFF9F4;fontStyle=1;labelBackgroundColor=none;" vertex="1" parent="1">
                    <mxGeometry x="640" y="620" width="200" height="80" as="geometry"/>
                </mxCell>
                <mxCell id="9" value="" style="curved=1;endArrow=classic;html=1;exitX=1;exitY=0.5;exitDx=0;exitDy=0;entryX=1;entryY=0.25;entryDx=0;entryDy=0;strokeWidth=2;strokeColor=#990000;labelBackgroundColor=none;" edge="1" parent="1" source="5" target="5">
                    <mxGeometry width="50" height="50" relative="1" as="geometry">
                        <mxPoint x="1000" y="590" as="sourcePoint"/>
                        <mxPoint x="1050" y="540" as="targetPoint"/>
                        <Array as="points">
                            <mxPoint x="870" y="540"/>
                            <mxPoint x="880" y="490"/>
                        </Array>
                    </mxGeometry>
                </mxCell>
                <mxCell id="12" value="1.2 初始化" style="edgeLabel;html=1;align=center;verticalAlign=middle;resizable=0;points=[];labelBackgroundColor=none;" vertex="1" connectable="0" parent="9">
                    <mxGeometry x="0.0595" relative="1" as="geometry">
                        <mxPoint as="offset"/>
                    </mxGeometry>
                </mxCell>
                <mxCell id="10" value="" style="curved=1;endArrow=classic;html=1;exitX=0.25;exitY=1;exitDx=0;exitDy=0;entryX=0.218;entryY=-0.006;entryDx=0;entryDy=0;entryPerimeter=0;strokeWidth=2;strokeColor=#990000;labelBackgroundColor=none;" edge="1" parent="1" source="5" target="7">
                    <mxGeometry width="50" height="50" relative="1" as="geometry">
                        <mxPoint x="850" y="530" as="sourcePoint"/>
                        <mxPoint x="850" y="510" as="targetPoint"/>
                        <Array as="points">
                            <mxPoint x="630" y="580"/>
                            <mxPoint x="650" y="600"/>
                        </Array>
                    </mxGeometry>
                </mxCell>
                <mxCell id="11" value="1.1 创建 VehiclePropertyStore" style="edgeLabel;html=1;align=center;verticalAlign=middle;resizable=0;points=[];labelBackgroundColor=none;" vertex="1" connectable="0" parent="10">
                    <mxGeometry x="-0.0731" y="2" relative="1" as="geometry">
                        <mxPoint as="offset"/>
                    </mxGeometry>
                </mxCell>
                <mxCell id="13" value="" style="curved=1;endArrow=classic;html=1;exitX=0.75;exitY=1;exitDx=0;exitDy=0;entryX=1;entryY=0.5;entryDx=0;entryDy=0;strokeWidth=2;strokeColor=#990000;labelBackgroundColor=none;" edge="1" parent="1" source="5" target="7">
                    <mxGeometry width="50" height="50" relative="1" as="geometry">
                        <mxPoint x="920" y="630" as="sourcePoint"/>
                        <mxPoint x="970" y="580" as="targetPoint"/>
                        <Array as="points">
                            <mxPoint x="880" y="570"/>
                            <mxPoint x="880" y="640"/>
                        </Array>
                    </mxGeometry>
                </mxCell>
                <mxCell id="14" value="1.2.1 注册config" style="edgeLabel;html=1;align=center;verticalAlign=middle;resizable=0;points=[];labelBackgroundColor=none;" vertex="1" connectable="0" parent="13">
                    <mxGeometry x="0.2431" y="-1" relative="1" as="geometry">
                        <mxPoint as="offset"/>
                    </mxGeometry>
                </mxCell>
                <mxCell id="15" value="" style="curved=1;endArrow=classic;html=1;entryX=1;entryY=0.5;entryDx=0;entryDy=0;strokeWidth=2;strokeColor=#990000;labelBackgroundColor=none;" edge="1" parent="1" target="7">
                    <mxGeometry width="50" height="50" relative="1" as="geometry">
                        <mxPoint x="780" y="560" as="sourcePoint"/>
                        <mxPoint x="980" y="720" as="targetPoint"/>
                        <Array as="points">
                            <mxPoint x="1010" y="580"/>
                            <mxPoint x="1020" y="700"/>
                        </Array>
                    </mxGeometry>
                </mxCell>
                <mxCell id="17" value="1.2.2 写入config初始值" style="edgeLabel;html=1;align=center;verticalAlign=middle;resizable=0;points=[];labelBackgroundColor=none;" vertex="1" connectable="0" parent="15">
                    <mxGeometry x="0.0465" y="-3" relative="1" as="geometry">
                        <mxPoint as="offset"/>
                    </mxGeometry>
                </mxCell>
                <mxCell id="18" value="" style="curved=1;endArrow=classic;html=1;entryX=0.5;entryY=0;entryDx=0;entryDy=0;strokeWidth=2;strokeColor=#4C0099;labelBackgroundColor=none;" edge="1" parent="1" target="3">
                    <mxGeometry width="50" height="50" relative="1" as="geometry">
                        <mxPoint x="441" y="280" as="sourcePoint"/>
                        <mxPoint x="590" y="520" as="targetPoint"/>
                        <Array as="points">
                            <mxPoint x="470" y="300"/>
                            <mxPoint x="630" y="310"/>
                        </Array>
                    </mxGeometry>
                </mxCell>
                <mxCell id="19" value="2. 创建 VehicleHal" style="edgeLabel;html=1;align=center;verticalAlign=middle;resizable=0;points=[];labelBackgroundColor=none;" vertex="1" connectable="0" parent="18">
                    <mxGeometry x="-0.0343" y="7" relative="1" as="geometry">
                        <mxPoint as="offset"/>
                    </mxGeometry>
                </mxCell>
                <mxCell id="20" value="SubscriptionManager" style="rounded=1;whiteSpace=wrap;html=1;strokeWidth=2;labelBackgroundColor=none;fillColor=#FFFF99;arcSize=6;fontStyle=1" vertex="1" parent="1">
                    <mxGeometry x="940" y="390" width="220" height="60" as="geometry"/>
                </mxCell>
                <mxCell id="21" value="" style="curved=1;endArrow=classic;html=1;entryX=0.5;entryY=0;entryDx=0;entryDy=0;strokeWidth=2;exitX=1.003;exitY=0.4;exitDx=0;exitDy=0;exitPerimeter=0;strokeColor=#4C0099;labelBackgroundColor=none;" edge="1" parent="1" source="3" target="20">
                    <mxGeometry width="50" height="50" relative="1" as="geometry">
                        <mxPoint x="890" y="300" as="sourcePoint"/>
                        <mxPoint x="1109" y="360" as="targetPoint"/>
                        <Array as="points">
                            <mxPoint x="880" y="350"/>
                            <mxPoint x="1010" y="350"/>
                        </Array>
                    </mxGeometry>
                </mxCell>
                <mxCell id="22" value="2.1 创建 SubscriptionManager" style="edgeLabel;html=1;align=center;verticalAlign=middle;resizable=0;points=[];labelBackgroundColor=none;" vertex="1" connectable="0" parent="21">
                    <mxGeometry x="-0.0343" y="7" relative="1" as="geometry">
                        <mxPoint as="offset"/>
                    </mxGeometry>
                </mxCell>
            </root>
        </mxGraphModel>
    </diagram>
</mxfile>